PathFileType	4	(X/Y/Z)	markers.trc
DataRate	CameraRate	NumFrames	NumMarkers	Units	OrigDataRate	OrigDataStartFrame	OrigNumFrames
200	200	4	29	mm	200	1	185
Frame#	Time	RxCheec			LxCheec			C7			maxkif			RxShould			LxShould			RxElbow			LxElbow			RxWrist			LxWrist			Psis			RxAsis			LxAsis			RxThigh			LxThigh			RxLatCon			LxLatCon			RxFH			LxFH			RxShank			LxShank			RxLatMal			LxLatMal			RxHeel			LxHeel			RxToe1			LxToe1			RxMeta5			LxMeta5			
		X1	Y1	Z1	X2	Y2	Z2	X3	Y3	Z3	X4	Y4	Z4	X5	Y5	Z5	X6	Y6	Z6	X7	Y7	Z7	X8	Y8	Z8	X9	Y9	Z9	X10	Y10	Z10	X11	Y11	Z11	X12	Y12	Z12	X13	Y13	Z13	X14	Y14	Z14	X15	Y15	Z15	X16	Y16	Z16	X17	Y17	Z17	X18	Y18	Z18	X19	Y19	Z19	X20	Y20	Z20	X21	Y21	Z21	X22	Y22	Z22	X23	Y23	Z23	X24	Y24	Z24	X25	Y25	Z25	X26	Y26	Z26	X27	Y27	Z27	X28	Y28	Z28	X29	Y29	Z29

1	1.615	42.382948100566864	1594.1287279129028	290.5053496360779	39.18367624282837	1593.6330556869507	127.02545523643494	-108.12979936599731	1531.7834615707397	213.35294842720032	-209.00686085224152	1319.8062181472778	206.13911747932434	-84.70050245523453	1509.5700025558472	365.85623025894165	-61.121780425310135	1514.8611068725586	61.67864799499512	-226.59188508987427	1181.2390089035034	436.48025393486023	-87.19152212142944	1183.3456754684448	-72.46492058038712	-218.04429590702057	924.2732524871826	469.2491292953491	55.76104298233986	955.9890627861023	-90.2586281299591	-188.09673190116882	999.330461025238	227.31761634349823	5.4713049903512	989.0820980072021	320.70139050483704	-25.02928115427494	984.115481376648	69.60972398519516	115.45710265636444	689.8258924484253	281.56575560569763	-90.36751091480255	632.7021718025208	121.50618433952332	123.27561527490616	507.0233345031738	323.031485080719	-228.41034829616547	472.86099195480347	102.00774669647217	122.34598398208618	444.29686665534973	333.85562896728516	-282.5549244880676	443.60676407814026	93.47566962242126	205.1122933626175	344.5793390274048	262.0944082736969	-308.34123492240906	298.2407808303833	157.23024308681488	232.8825145959854	77.48162001371384	289.4364297389984	-500.0336170196533	130.48775494098663	161.01448237895966	195.01574337482452	43.45852881669998	233.1310510635376	-540.9034490585327	134.56539809703827	221.46308422088623	434.61838364601135	130.05807995796204	263.3357644081116	-312.67744302749634	25.181660428643227	158.1617295742035	362.311452627182	74.19122010469437	319.38979029655457	-424.74013566970825	22.84555695950985	121.81980162858963
2	1.6199999999999999	50.95968022942543	1593.898892402649	291.3036644458771	47.458745539188385	1593.403697013855	127.8374046087265	-99.49865192174911	1531.0994386672974	214.56241607666016	-199.62796568870544	1318.7626600265503	206.7537158727646	-75.49741864204407	1508.4729194641113	366.8925166130066	-52.89480835199356	1514.7885084152222	62.824130058288574	-217.35888719558716	1180.159568786621	437.0727241039276	-79.39355820417404	1183.8066577911377	-72.50373065471649	-209.76205170154572	923.0850338935852	469.2622423171997	65.39180874824524	957.5034976005554	-90.67663550376892	-177.93326079845428	998.80051612854	227.1568924188614	15.98544605076313	988.6201620101929	320.34361362457275	-14.905881136655807	983.0717444419861	69.2625492811203	125.80600380897522	690.5242204666138	279.2077660560608	-79.89984005689621	631.4507126808167	121.21444940567017	133.70881974697113	506.1875581741333	320.81395387649536	-218.170627951622	471.5503752231598	101.12370550632477	131.6787153482437	443.2055652141571	332.01828598976135	-272.8760540485382	443.0471360683441	92.56666153669357	211.97207272052765	341.59591794013977	259.77954268455505	-301.80394649505615	298.2492446899414	155.90722858905792	234.33993756771088	75.1480683684349	287.6381278038025	-496.91835045814514	134.26458835601807	159.1944396495819	196.09598815441132	41.991617530584335	231.59641027450562	-537.4042987823486	139.8978978395462	219.6570336818695	438.32799792289734	121.09848111867905	262.1123194694519	-312.6918375492096	25.224385783076286	158.07762742042542	363.27436566352844	68.47567856311798	317.8934156894684	-424.2337644100189	23.445356637239456	121.77596986293793
3	1.625	59.52871963381767	1593.7597751617432	292.1034097671509	55.7125024497509	1593.2577848434448	128.69267165660858	-90.88755398988724	1530.484914779663	215.8149778842926	-190.22919237613678	1317.83926486969	207.39269256591797	-66.28051400184631	1507.4182748794556	367.9785430431366	-44.84688490629196	1514.7966146469116	63.9207661151886	-208.03484320640564	1179.0791749954224	437.69076466560364	-71.62310928106308	1184.2825412750244	-72.51603901386261	-201.38444006443024	921.8952655792236	469.29773688316345	74.7869461774826	958.9391350746155	-91.07465296983719	-167.67314076423645	998.3901381492615	227.00895369052887	26.515355333685875	988.271176815033	319.96873021125793	-4.649583250284195	982.0460677146912	68.98858398199081	136.2835019826889	691.0235285758972	276.8702805042267	-69.2051649093628	630.1648616790771	120.90235948562622	143.70831847190857	505.23602962493896	318.7541365623474	-207.57046341896057	470.1596796512604	100.17698258161545	140.59017598628998	442.07093119621277	330.3000032901764	-262.86497712135315	442.4566924571991	91.61336719989777	218.8597172498703	338.9849662780762	257.509708404541	-294.9340343475342	298.29174280166626	154.44904565811157	236.3915890455246	73.58718663454056	285.84399819374084	-493.4200942516327	138.22849094867706	157.37450122833252	197.7420598268509	41.54849797487259	229.8518568277359	-533.3613157272339	145.46388387680054	217.8717702627182	442.7507817745209	112.06267774105072	261.75281405448914	-312.76649236679077	25.2386461943388	157.9788774251938	364.4351661205292	63.139453530311584	316.7516589164734	-423.58294129371643	24.240653961896896	121.74344062805176
4	1.63	68.11267137527466	1593.7440395355225	292.90980100631714	63.96077573299408	1593.2282209396362	129.58551943302155	-82.29347318410873	1529.971718788147	217.11191534996033	-180.81273138523102	1317.0756101608276	208.05320143699646	-57.0538230240345	1506.4212083816528	369.1108226776123	-37.06449270248413	1514.9157047271729	64.92781639099121	-198.60459864139557	1177.990436553955	438.3382499217987	-63.869163393974304	1184.7662925720215	-72.49220460653305	-192.93323159217834	920.7010865211487	469.3557918071747	83.95127952098846	960.2915644645691	-91.45044535398483	-157.34201669692993	998.130738735199	226.8683910369873	37.00610250234604	988.0698323249817	319.5878863334656	5.699879489839077	981.0286164283752	68.79867613315582	146.93155884742737	691.392183303833	274.58029985427856	-58.26355516910553	628.8555264472961	120.53174525499344	153.22579443454742	504.3039917945862	316.9589042663574	-196.59121334552765	468.70002150535583	99.1644412279129	149.110347032547	441.0388171672821	328.79507541656494	-252.4997591972351	441.848486661911	90.61433374881744	225.8724719285965	336.9447588920593	255.38066029548645	-287.66709566116333	298.35256934165955	152.86722779273987	239.3844723701477	72.79571145772934	284.29114818573	-489.4392192363739	142.36320555210114	155.575692653656	200.1170963048935	42.10308566689491	228.1986027956009	-528.7032127380371	151.24620497226715	216.11244976520538	447.9454755783081	103.46923768520355	262.0003819465637	-312.93734908103943	25.224225595593452	157.8943133354187	366.1665618419647	58.38155746459961	315.88730216026306	-422.7641522884369	25.2400990575552	121.70761078596115
